<svg width="167" height="54" viewBox="0 0 167 54" fill="none" xmlns="http://www.w3.org/2000/svg">
<g clip-path="url(#clip0_3024_4130)">
<path d="M136.339 35.377H125.237V3.16796H136.339V35.377ZM94.1123 28.4528V17.0617C94.1123 10.59 97.1048 9.44504 105.564 9.44504H110.339C118.793 9.44504 121.786 10.59 121.786 17.0617V28.4528C121.786 34.3361 118.793 35.377 110.339 35.377H105.564C97.1048 35.377 94.1123 34.3497 94.1123 28.4528V28.4528ZM104.7 28.6248C104.7 30.6251 105.045 31.0279 107.806 31.0279H108.092C110.853 31.0279 111.198 30.6251 111.198 28.6248V16.5458C111.198 14.5409 110.853 14.1381 108.092 14.1381H107.806C105.045 14.1381 104.7 14.5409 104.7 16.5458V28.6248ZM83.2249 35.377H88.3411C89.7055 35.377 91.0698 35.2051 91.6201 34.8068V30.2268H89.5918C86.7721 30.2268 85.8535 29.6521 85.8535 27.6517V14.5998H91.7656V9.44504H85.8535V3.16796H82.5154L74.7841 9.44504V27.5476C74.7841 33.6754 77.5446 35.3906 83.243 35.3906L83.2249 35.377ZM65.2929 16.7178C65.2929 14.9392 65.5794 14.5998 67.1347 14.5998H71.2277V9.44504H59.9446C55.6288 9.44504 54.1917 11.3911 54.1917 15.17V35.2639H65.2929V16.7178ZM39.6341 9.44504C47.4609 9.44504 49.9349 11.5087 49.9349 18.0438V35.2639H40.0207V30.5346C39.0202 33.4084 36.4188 35.377 32.485 35.377H29.9155C25.3131 35.377 22.2843 33.603 22.2843 27.8237V26.5611C22.2843 21.1801 24.7583 19.4648 31.3799 19.1209L38.9156 18.7136V17.2292C38.9156 15.4551 38.5699 14.5998 36.4416 14.5998H24.0443L27.4415 9.44504H39.6341ZM38.8883 26.905V22.4246L36.7008 22.6283C33.6538 22.9134 32.9625 23.4836 32.9625 25.8324V26.8643C32.9625 28.8103 33.5401 29.7833 35.723 29.7833H36.1278C38.0833 29.7833 38.8883 28.9823 38.8883 26.9186V26.905ZM167 18.0483V35.2639H157.109V30.5346C156.103 33.4084 153.502 35.377 149.568 35.377H146.981C142.378 35.377 139.331 33.603 139.331 27.8237V26.5611C139.331 21.1801 141.805 19.4648 148.427 19.1209L155.967 18.7136V17.2292C155.967 15.4551 155.621 14.5998 153.493 14.5998H141.123L144.516 9.44504H156.713C164.535 9.44504 167.009 11.5087 167.009 18.0438L167 18.0483ZM155.967 26.9141V22.4337L153.78 22.6237C150.728 22.9089 150.041 23.4791 150.041 25.8279V26.8597C150.041 28.8058 150.614 29.7788 152.802 29.7788H153.202C155.158 29.7788 155.967 28.9778 155.967 26.9141V26.9141ZM14.7849 29.023V11.5087C14.7849 5.95576 15.649 5.17282 21.1518 5.17282H44.755L42.4538 0H14.7849C4.19762 0 0 3.43497 0 14.3689V29.8693C0 39.613 3.63825 43.3377 14.8395 44.0799L154.289 53.2398L167 41.3328V39.8257H27.7416C18.646 39.8257 14.7849 37.1104 14.7849 29.023Z" fill="#FD6422"/>
</g>
<defs>
<clipPath id="clip0_3024_4130">
<rect width="167" height="53.2398" fill="white"/>
</clipPath>
</defs>
</svg>
