<svg width="512" height="360" viewBox="0 0 512 360" fill="none" xmlns="http://www.w3.org/2000/svg">
<g clip-path="url(#clip0_1212_1770)">
<path d="M121.45 0.0222168C56.185 0.0222168 0 55.6788 0 128.455C0 201.231 52.9433 251.57 119.848 251.57C149.825 251.57 172.83 237.658 186.21 223.194C185.711 274.029 158.88 297.05 112.866 297.05C88.2692 297.05 65.2593 289.573 38.498 272.453C31.5443 267.593 23.5315 269.229 19.793 276.748L3.71518 308.263C-0.0314305 315.815 1.04849 322.724 8.51711 327.544C41.708 348.96 80.8155 359.7 114.531 359.7C202.853 359.7 251.482 312.02 251.482 202.315V17.1925C251.482 9.15894 246.705 4.31726 238.671 4.31726H202.287C194.253 4.31726 189.476 9.1607 189.476 17.1925V31.0931C175.044 13.4474 148.21 0.0255127 121.448 0.0255127L121.45 0.0222168ZM125.745 62.0932C159.46 62.0932 187.303 88.3246 187.303 127.942C187.303 166.971 159.46 193.792 125.745 193.792C92.0292 193.792 63.6751 167.003 63.6751 127.942C63.6751 88.3246 92.0292 62.0932 125.745 62.0932Z" fill="white"/>
<path d="M387.859 0.0222473V0.0881348C320.429 0.0881348 264.744 55.7445 264.744 128.521C264.744 202.903 320.406 256.952 391.574 256.952C448.838 256.952 491.664 231.788 506.618 186.299C509.31 178.307 505.605 172.398 496.434 172.398H455.758C448.804 172.398 444.551 175.107 440.256 180.982C430.093 194.363 415.122 200.263 394.264 200.263C361.599 200.263 337.021 179.384 330.593 147.801H499.124C507.157 147.801 512 142.991 512 134.99V134.326C512 59.4174 465.455 0 387.859 0V0.0222473ZM389.462 55.1746C414.058 55.1746 435.515 70.6965 442.436 98.5406H331.107C338.093 73.3849 359.486 55.1746 389.462 55.1746Z" fill="white"/>
</g>
<defs>
<clipPath id="clip0_1212_1770">
<rect width="512" height="359.7" fill="white"/>
</clipPath>
</defs>
</svg>
